<svg xmlns="http://www.w3.org/2000/svg" xmlns:xlink="http://www.w3.org/1999/xlink" xmlns:lucid="lucid" width="965" height="720"><g transform="translate(-100 -100)" lucid:page-tab-id="0_0"><path d="M722.7 640c0 13.8-11.18 25-25 25-13.8 0-25-11.2-25-25s11.2-25 25-25c13.82 0 25 11.2 25 25zM805 310c0 13.8-11.2 25-25 25s-25-11.2-25-25 11.2-25 25-25 25 11.2 25 25zM1010 245c0 13.8-11.2 25-25 25s-25-11.2-25-25 11.2-25 25-25 25 11.2 25 25zM140 326a6 6 0 0 1 6-6h88a6 6 0 0 1 6 6v48a6 6 0 0 1-6 6h-88a6 6 0 0 1-6-6z" stroke="#3a414a" fill="#fff"/><use xlink:href="#a" transform="matrix(1,0,0,1,152,332) translate(-6.938271604938279 22.444444444444443)"/><path d="M1005 245c0 11.05-8.95 20-20 20s-20-8.95-20-20 8.95-20 20-20 20 8.95 20 20z" stroke="#3a414a" fill="#fff"/><use xlink:href="#b" transform="matrix(1,0,0,1,970,230) translate(-0.41666666666665897 17.22222222222222)"/><path d="M800 310c0 11.05-8.95 20-20 20s-20-8.95-20-20 8.95-20 20-20 20 8.95 20 20z" stroke="#3a414a" fill="#fff"/><use xlink:href="#c" transform="matrix(1,0,0,1,765,295) translate(4.506172839506178 16.388888888888886)"/><path d="M240.96 350H294a6 6 0 0 0 6-6v-47.55" stroke="#3a414a" fill="none"/><path d="M240.98 350.5h-.52v-1h.52z" stroke="#3a414a" stroke-width=".05" fill="#3a414a"/><path d="M300 281.68l4.64 14.27h-9.28z" stroke="#3a414a" fill="#3a414a"/><path d="M160 260c0 11.05-8.95 20-20 20s-20-8.95-20-20 8.95-20 20-20 20 8.95 20 20z" stroke="#3a414a" fill="#fff"/><use xlink:href="#d" transform="matrix(1,0,0,1,125,245) translate(6.069814814814819 17.06666666666667)"/><path d="M210 250c0 11.05-8.95 20-20 20s-20-8.95-20-20 8.95-20 20-20 20 8.95 20 20z" stroke="#3a414a" fill="#fff"/><use xlink:href="#e" transform="matrix(1,0,0,1,175,235) translate(-2.9012345679012235 19.266666666666666)"/><path d="M190 319.04v-32.16" stroke="#3a414a" fill="none"/><path d="M190.5 319.54h-1v-.52h1z" stroke="#3a414a" stroke-width=".05" fill="#3a414a"/><path d="M190 272.12l4.64 14.26h-9.28z" stroke="#3a414a" fill="#3a414a"/><path d="M139.54 349.5v-52.67" stroke="#3a414a" fill="none"/><path stroke="#3a414a" stroke-width=".05" fill="#3a414a"/><path d="M139.54 282.06l4.63 14.27h-9.27z" stroke="#3a414a" fill="#3a414a"/><path d="M459.16 365.1a6 6 0 0 1 6-6h88a6 6 0 0 1 6 6v48a6 6 0 0 1-6 6h-88a6 6 0 0 1-6-6z" stroke="#3a414a" fill="#fff"/><use xlink:href="#f" transform="matrix(1,0,0,1,471.15936653647316,371.0955857811477) translate(7.166666666666668 22.27777777777778)"/><path d="M459.16 466a6 6 0 0 1 6-6h88a6 6 0 0 1 6 6v48a6 6 0 0 1-6 6h-88a6 6 0 0 1-6-6z" stroke="#3a414a" fill="#fff"/><use xlink:href="#g" transform="matrix(1,0,0,1,471.15936653647316,472) translate(4.697530864197532 22.27777777777778)"/><path d="M344.94 362.9a7.33 7.33 0 0 1 9.28 0l40.72 33.34a4.9 4.9 0 0 1 0 7.6l-40.72 33.34a7.33 7.33 0 0 1-9.28 0l-40.72-33.34a4.9 4.9 0 0 1 0-7.6z" stroke="#3a414a" fill="#fff"/><use xlink:href="#h" transform="matrix(1,0,0,1,304.5796832682366,364.0955857811477) translate(21.60993827160494 40.27777777777778)"/><path d="M397.74 400.04h24.76a5.47 5.47 0 0 0 5.47-5.47 5.47 5.47 0 0 1 5.47-5.47h11.26" stroke="#3a414a" fill="none"/><path d="M397.75 400.54h-.55l.04-.5-.04-.5h.55z" stroke="#3a414a" stroke-width=".05" fill="#3a414a"/><path d="M458 389.1l-7.08 7.07-7.93-7.07 7.92-7.08z" stroke="#3a414a" fill="#fff"/><path d="M301.42 400.04H277.2a6 6 0 0 1-6-6V356a6 6 0 0 0-6-6h-8.35" stroke="#3a414a" fill="none"/><path d="M301.92 400.04l.04.5h-.55v-1h.56z" stroke="#3a414a" stroke-width=".05" fill="#3a414a"/><path d="M242.08 350l14.27-4.64v9.28z" stroke="#3a414a" fill="#3a414a"/><path d="M344.94 463.8a7.33 7.33 0 0 1 9.28 0l40.72 33.34a4.9 4.9 0 0 1 0 7.6l-40.72 33.35a7.33 7.33 0 0 1-9.28 0l-40.72-33.35a4.9 4.9 0 0 1 0-7.6z" stroke="#3a414a" fill="#fff"/><use xlink:href="#i" transform="matrix(1,0,0,1,304.5796832682366,465) translate(8.02469135802469 40.44444444444444)"/><path d="M458.2 490h-24.76a5.47 5.47 0 0 0-5.47 5.47 5.47 5.47 0 0 1-5.47 5.48h-8.88" stroke="#3a414a" fill="none"/><path d="M458.7 490.5h-.52v-1h.5z" stroke="#3a414a" stroke-width=".05" fill="#3a414a"/><path d="M398.86 500.95l14.26-4.64v9.28z" stroke="#3a414a" fill="#3a414a"/><path d="M301.42 500.95H187.44a6 6 0 0 1-6-6v-98.1" stroke="#3a414a" fill="none"/><path d="M301.92 500.95l.04.5h-.55v-1h.56z" stroke="#3a414a" stroke-width=".05" fill="#3a414a"/><path d="M181.44 382.1l4.64 14.25h-9.27z" stroke="#3a414a" fill="#3a414a"/><path d="M439.58 371c0 11.05-8.95 20-20 20s-20-8.95-20-20 8.95-20 20-20 20 8.95 20 20z" stroke="#3a414a" fill="#fff"/><use xlink:href="#j" transform="matrix(1,0,0,1,404.5796832682366,356) translate(1.1315432098765508 17.06666666666667)"/><path d="M615.48 371c0 11.05-8.96 20-20 20-11.05 0-20-8.95-20-20s8.95-20 20-20c11.04 0 20 8.95 20 20z" stroke="#3a414a" fill="#fff"/><use xlink:href="#k" transform="matrix(1,0,0,1,580.4753086419753,356) translate(4.233395061728398 17.06666666666667)"/><path d="M577.48 280c0 11.05-8.96 20-20 20-11.05 0-20-8.95-20-20s8.95-20 20-20c11.04 0 20 8.95 20 20z" stroke="#3a414a" fill="#fff"/><use xlink:href="#l" transform="matrix(1,0,0,1,542.4780996094195,265) translate(4.52160493827161 16.388888888888886)"/><path d="M617.48 320c0 11.05-8.96 20-20 20-11.05 0-20-8.95-20-20s8.95-20 20-20c11.04 0 20 8.95 20 20z" stroke="#3a414a" fill="#fff"/><use xlink:href="#m" transform="matrix(1,0,0,1,582.4780996094195,305) translate(-4.7376543209876445 17.22222222222222)"/><path d="M140 586a6 6 0 0 1 6-6h88a6 6 0 0 1 6 6v48a6 6 0 0 1-6 6h-88a6 6 0 0 1-6-6z" stroke="#3a414a" fill="#fff"/><use xlink:href="#n" transform="matrix(1,0,0,1,152,592) translate(9.080246913580247 22.27777777777778)"/><path d="M190 579.04V565.9a6 6 0 0 1 6-6h150.32a3.26 3.26 0 0 0 3.26-3.27" stroke="#3a414a" fill="none"/><path d="M190.5 579.54h-1v-.52h1z" stroke="#3a414a" stroke-width=".05" fill="#3a414a"/><path d="M349.58 541.87l4.63 14.26h-9.26z" stroke="#3a414a" fill="#3a414a"/><path d="M520 280c0 11.05-8.95 20-20 20s-20-8.95-20-20 8.95-20 20-20 20 8.95 20 20z" stroke="#3a414a" fill="#fff"/><use xlink:href="#d" transform="matrix(1,0,0,1,485,265) translate(6.069814814814819 17.06666666666667)"/><path d="M462.52 280c0 11.05-8.95 20-20 20-11.04 0-20-8.95-20-20s8.96-20 20-20c11.05 0 20 8.95 20 20z" stroke="#3a414a" fill="#fff"/><use xlink:href="#o" transform="matrix(1,0,0,1,427.5219003905805,265) translate(-0.4320987654320909 19.266666666666666)"/><path d="M360 126a6 6 0 0 1 6-6h88a6 6 0 0 1 6 6v48a6 6 0 0 1-6 6h-88a6 6 0 0 1-6-6z" stroke="#3a414a" fill="#fff"/><use xlink:href="#p" transform="matrix(1,0,0,1,372,132) translate(-7.586419753086425 22.444444444444443)"/><path d="M384.94 208.36a7.33 7.33 0 0 1 9.28 0l40.72 33.34a4.9 4.9 0 0 1 0 7.6l-40.72 33.34a7.33 7.33 0 0 1-9.28 0l-40.72-33.34a4.9 4.9 0 0 1 0-7.6z" stroke="#3a414a" fill="#fff"/><use xlink:href="#q" transform="matrix(1,0,0,1,344.5796832682366,209.55497921831312) translate(20.930925925925926 40.27777777777778)"/><path d="M222 319v-67.5a6 6 0 0 1 6-6h97.54" stroke="#3a414a" fill="none"/><path d="M222.5 319.5h-1v-.5h1z" stroke="#3a414a" stroke-width=".05" fill="#3a414a"/><path d="M340.3 245.5l-14.26 4.64v-9.28z" stroke="#3a414a" fill="#3a414a"/><path d="M410 180.96v6.37a6 6 0 0 1-6 6h-10.9" stroke="#3a414a" fill="none"/><path d="M410.5 180.98h-1v-.52h1z" stroke="#3a414a" stroke-width=".05" fill="#3a414a"/><path d="M390 204.64l-.7-15 8.94 2.46z" stroke="#3a414a" fill="#3a414a"/><path d="M509.16 358.13v-30.4a6 6 0 0 0-6-6H395.58a6 6 0 0 1-6-6v-14.54" stroke="#3a414a" fill="none"/><path d="M509.66 358.63h-1v-.5h1z" stroke="#3a414a" stroke-width=".05" fill="#3a414a"/><path d="M389.58 286.42l4.63 14.27h-9.26z" stroke="#3a414a" fill="#3a414a"/><path d="M400 640c0 11.05-8.95 20-20 20s-20-8.95-20-20 8.95-20 20-20 20 8.95 20 20z" stroke="#3a414a" fill="#fff"/><use xlink:href="#r" transform="matrix(1,0,0,1,365,625) translate(1.1265432098765515 16.388888888888886)"/><path d="M446 640c0 11.05-8.95 20-20 20s-20-8.95-20-20 8.95-20 20-20 20 8.95 20 20z" stroke="#3a414a" fill="#fff"/><use xlink:href="#s" transform="matrix(1,0,0,1,411,625) translate(4.228395061728399 16.388888888888886)"/><path d="M505.16 640c0 11.05-8.95 20-20 20s-20-8.95-20-20 8.95-20 20-20 20 8.95 20 20z" stroke="#3a414a" fill="#fff"/><use xlink:href="#t" transform="matrix(1,0,0,1,470.15936653647316,625) translate(-2.2685185185185084 17.22222222222222)"/><path d="M603.24 640c0 11.05-8.96 20-20 20-11.05 0-20-8.95-20-20s8.95-20 20-20c11.04 0 20 8.95 20 20z" stroke="#3a414a" fill="#fff"/><use xlink:href="#u" transform="matrix(1,0,0,1,568.2376543209876,625) translate(-0.4320987654320909 17.22222222222222)"/><path d="M546 640c0 11.05-8.95 20-20 20s-20-8.95-20-20 8.95-20 20-20 20 8.95 20 20z" stroke="#3a414a" fill="#fff"/><use xlink:href="#v" transform="matrix(1,0,0,1,511,625) translate(7.608024691358028 16.388888888888886)"/><path d="M660.48 640c0 11.05-8.96 20-20 20-11.05 0-20-8.95-20-20s8.95-20 20-20c11.04 0 20 8.95 20 20z" stroke="#3a414a" fill="#fff"/><use xlink:href="#m" transform="matrix(1,0,0,1,625.4753086419753,625) translate(-4.7376543209876445 17.22222222222222)"/><path d="M717.7 640c0 11.05-8.94 20-20 20-11.03 0-20-8.95-20-20s8.97-20 20-20c11.06 0 20 8.95 20 20z" stroke="#3a414a" fill="#fff"/><use xlink:href="#w" transform="matrix(1,0,0,1,682.7129629629629,625) translate(-2.8703703703703596 17.22222222222222)"/><path d="M784.95 640c0 13.8-11.2 25-25 25s-25-11.2-25-25 11.2-25 25-25 25 11.2 25 25z" stroke="#3a414a" fill="#fff"/><path d="M779.95 640c0 11.05-8.95 20-20 20s-20-8.95-20-20 8.95-20 20-20 20 8.95 20 20z" stroke="#3a414a" fill="#fff"/><use xlink:href="#x" transform="matrix(1,0,0,1,744.9506172839506,625) translate(-0.0771604938271544 17.22222222222222)"/><path d="M615.48 780c0 11.05-8.96 20-20 20-11.05 0-20-8.95-20-20s8.95-20 20-20c11.04 0 20 8.95 20 20z" stroke="#3a414a" fill="#fff"/><use xlink:href="#y" transform="matrix(1,0,0,1,580.4753086419753,765) translate(-5.972222222222211 19.266666666666666)"/><path d="M665.48 780c0 11.05-8.96 20-20 20-11.05 0-20-8.95-20-20s8.95-20 20-20c11.04 0 20 8.95 20 20z" stroke="#3a414a" fill="#fff"/><use xlink:href="#z" transform="matrix(1,0,0,1,630.4753086419753,765) translate(8.214876543209881 18.94166666666667)"/><path d="M717.7 780c0 11.05-8.94 20-20 20-11.03 0-20-8.95-20-20s8.97-20 20-20c11.06 0 20 8.95 20 20z" stroke="#3a414a" fill="#fff"/><use xlink:href="#A" transform="matrix(1,0,0,1,682.7129629629629,765) translate(-3.4876543209876445 19.266666666666666)"/><path d="M800 780c0 11.05-8.95 20-20 20s-20-8.95-20-20 8.95-20 20-20 20 8.95 20 20z" stroke="#3a414a" fill="#fff"/><use xlink:href="#y" transform="matrix(1,0,0,1,765,765) translate(-5.972222222222211 19.266666666666666)"/><path d="M850 780c0 11.05-8.95 20-20 20s-20-8.95-20-20 8.95-20 20-20 20 8.95 20 20z" stroke="#3a414a" fill="#fff"/><use xlink:href="#z" transform="matrix(1,0,0,1,815,765) translate(8.214876543209881 18.94166666666667)"/><path d="M902.24 780c0 11.05-8.96 20-20 20-11.05 0-20-8.95-20-20s8.95-20 20-20c11.04 0 20 8.95 20 20z" stroke="#3a414a" fill="#fff"/><use xlink:href="#B" transform="matrix(1,0,0,1,867.2376543209876,765) translate(2.366111111111115 17.06666666666667)"/><path d="M840 635c0 11.05-8.95 20-20 20s-20-8.95-20-20 8.95-20 20-20 20 8.95 20 20z" stroke="#3a414a" fill="#fff"/><use xlink:href="#C" transform="matrix(1,0,0,1,805,620) translate(6.06481481481482 16.388888888888886)"/><path d="M702.24 386a6 6 0 0 1 6-6H834a6 6 0 0 1 6 6v88a6 6 0 0 1-6 6H708.24a6 6 0 0 1-6-6z" stroke="#3a414a" fill="#fff"/><use xlink:href="#D" transform="matrix(1,0,0,1,714.2376543209876,392) translate(32.37037037037037 41.52777777777778)"/><path d="M560.12 389.1h64.58a6 6 0 0 1 6 6V424a6 6 0 0 0 6 6h48.7" stroke="#3a414a" fill="none"/><path d="M560.14 389.6h-.52v-1h.52z" stroke="#3a414a" stroke-width=".05" fill="#3a414a"/><path d="M700.16 430l-14.27 4.64v-9.28z" stroke="#3a414a" fill="#3a414a"/><path d="M560.12 490h204.15" stroke="#3a414a" fill="none"/><path d="M560.14 490.5h-.52v-1h.52z" stroke="#3a414a" stroke-width=".05" fill="#3a414a"/><path d="M770.18 481.78l-4.56 14.3-7.53-5.42z" stroke="#3a414a" fill="#3a414a"/><path d="M734.95 310c0 11.05-8.95 20-20 20s-20-8.95-20-20 8.95-20 20-20 20 8.95 20 20z" stroke="#3a414a" fill="#fff"/><use xlink:href="#E" transform="matrix(1,0,0,1,699.9506172839506,295) translate(4.197530864197535 16.388888888888886)"/><path d="M774.95 250c0 11.05-8.95 20-20 20s-20-8.95-20-20 8.95-20 20-20 20 8.95 20 20z" stroke="#3a414a" fill="#fff"/><use xlink:href="#F" transform="matrix(1,0,0,1,739.9506172839506,235) translate(1.4351851851851904 16.388888888888886)"/><path d="M819.95 250c0 11.05-8.95 20-20 20s-20-8.95-20-20 8.95-20 20-20 20 8.95 20 20z" stroke="#3a414a" fill="#fff"/><use xlink:href="#G" transform="matrix(1,0,0,1,784.9506172839506,235) translate(1.1111111111111178 16.388888888888886)"/><path d="M880 300c0 11.05-8.95 20-20 20s-20-8.95-20-20 8.95-20 20-20 20 8.95 20 20z" stroke="#3a414a" fill="#fff"/><use xlink:href="#H" transform="matrix(1,0,0,1,845,285) translate(-8.719135802469122 17.22222222222222)"/><path d="M902.24 350c0 11.05-8.96 20-20 20-11.05 0-20-8.95-20-20s8.95-20 20-20c11.04 0 20 8.95 20 20z" stroke="#3a414a" fill="#fff"/><use xlink:href="#I" transform="matrix(1,0,0,1,867.2376543209876,335) translate(-8.425925925925913 17.22222222222222)"/><path d="M970 425c0 13.8-11.2 25-25 25s-25-11.2-25-25 11.2-25 25-25 25 11.2 25 25z" stroke="#3a414a" fill="#fff"/><path d="M965 425c0 11.05-8.95 20-20 20s-20-8.95-20-20 8.95-20 20-20 20 8.95 20 20z" stroke="#3a414a" fill="#fff"/><use xlink:href="#J" transform="matrix(1,0,0,1,930,410) translate(6.0493827160493865 16.388888888888886)"/><path d="M1040 389.1c0 11.04-8.95 20-20 20s-20-8.96-20-20c0-11.05 8.95-20 20-20s20 8.95 20 20z" stroke="#3a414a" fill="#fff"/><use xlink:href="#J" transform="matrix(1,0,0,1,1005,374.0955857811477) translate(6.0493827160493865 16.388888888888886)"/><path d="M1045 440c0 11.05-8.95 20-20 20s-20-8.95-20-20 8.95-20 20-20 20 8.95 20 20z" stroke="#3a414a" fill="#fff"/><use xlink:href="#K" transform="matrix(1,0,0,1,1010,425) translate(1.4506172839506242 16.388888888888886)"/><defs><path fill="#3a414a" d="M115-194c55 1 70 41 70 98S169 2 115 4C84 4 66-9 55-30l1 105H24l-1-265h31l2 30c10-21 28-34 59-34zm-8 174c40 0 45-34 45-75s-6-73-45-74c-42 0-51 32-51 76 0 43 10 73 51 73" id="L"/><path fill="#3a414a" d="M100-194c62-1 85 37 85 99 1 63-27 99-86 99S16-35 15-95c0-66 28-99 85-99zM99-20c44 1 53-31 53-75 0-43-8-75-51-75s-53 32-53 75 10 74 51 75" id="M"/><path fill="#3a414a" d="M24 0v-261h32V0H24" id="N"/><path fill="#3a414a" d="M179-190L93 31C79 59 56 82 12 73V49c39 6 53-20 64-50L1-190h34L92-34l54-156h33" id="O"/><path fill="#3a414a" d="M96-169c-40 0-48 33-48 73s9 75 48 75c24 0 41-14 43-38l32 2c-6 37-31 61-74 61-59 0-76-41-82-99-10-93 101-131 147-64 4 7 5 14 7 22l-32 3c-4-21-16-35-41-35" id="P"/><path fill="#3a414a" d="M24-231v-30h32v30H24zM24 0v-190h32V0H24" id="Q"/><path fill="#3a414a" d="M117-194c89-4 53 116 60 194h-32v-121c0-31-8-49-39-48C34-167 62-67 57 0H25l-1-190h30c1 10-1 24 2 32 11-22 29-35 61-36" id="R"/><g id="a"><use transform="matrix(0.06172839506172839,0,0,0.06172839506172839,0,0)" xlink:href="#L"/><use transform="matrix(0.06172839506172839,0,0,0.06172839506172839,12.345679012345679,0)" xlink:href="#M"/><use transform="matrix(0.06172839506172839,0,0,0.06172839506172839,24.691358024691358,0)" xlink:href="#N"/><use transform="matrix(0.06172839506172839,0,0,0.06172839506172839,29.5679012345679,0)" xlink:href="#O"/><use transform="matrix(0.06172839506172839,0,0,0.06172839506172839,40.67901234567901,0)" xlink:href="#P"/><use transform="matrix(0.06172839506172839,0,0,0.06172839506172839,51.79012345679013,0)" xlink:href="#N"/><use transform="matrix(0.06172839506172839,0,0,0.06172839506172839,56.66666666666667,0)" xlink:href="#Q"/><use transform="matrix(0.06172839506172839,0,0,0.06172839506172839,61.543209876543216,0)" xlink:href="#R"/><use transform="matrix(0.06172839506172839,0,0,0.06172839506172839,73.8888888888889,0)" xlink:href="#Q"/><use transform="matrix(0.06172839506172839,0,0,0.06172839506172839,78.76543209876544,0)" xlink:href="#P"/></g><path fill="#3a414a" d="M85-194c31 0 48 13 60 33l-1-100h32l1 261h-30c-2-10 0-23-3-31C134-8 116 4 85 4 32 4 16-35 15-94c0-66 23-100 70-100zm9 24c-40 0-46 34-46 75 0 40 6 74 45 74 42 0 51-32 51-76 0-42-9-74-50-73" id="S"/><path fill="#3a414a" d="M59-47c-2 24 18 29 38 22v24C64 9 27 4 27-40v-127H5v-23h24l9-43h21v43h35v23H59v120" id="T"/><path fill="#3a414a" d="M114-163C36-179 61-72 57 0H25l-1-190h30c1 12-1 29 2 39 6-27 23-49 58-41v29" id="U"/><g id="b"><use transform="matrix(0.030864197530864182,0,0,0.030864197530864182,0,0)" xlink:href="#S"/><use transform="matrix(0.030864197530864182,0,0,0.030864197530864182,6.172839506172837,0)" xlink:href="#M"/><use transform="matrix(0.030864197530864182,0,0,0.030864197530864182,12.345679012345673,0)" xlink:href="#P"/><use transform="matrix(0.030864197530864182,0,0,0.030864197530864182,17.901234567901227,0)" xlink:href="#T"/><use transform="matrix(0.030864197530864182,0,0,0.030864197530864182,20.987654320987644,0)" xlink:href="#M"/><use transform="matrix(0.030864197530864182,0,0,0.030864197530864182,27.16049382716048,0)" xlink:href="#U"/></g><path fill="#3a414a" d="M100-194c63 0 86 42 84 106H49c0 40 14 67 53 68 26 1 43-12 49-29l28 8c-11 28-37 45-77 45C44 4 14-33 15-96c1-61 26-98 85-98zm52 81c6-60-76-77-97-28-3 7-6 17-6 28h103" id="V"/><path fill="#3a414a" d="M141 0L90-78 38 0H4l68-98-65-92h35l48 74 47-74h35l-64 92 68 98h-35" id="W"/><path fill="#3a414a" d="M141-36C126-15 110 5 73 4 37 3 15-17 15-53c-1-64 63-63 125-63 3-35-9-54-41-54-24 1-41 7-42 31l-33-3c5-37 33-52 76-52 45 0 72 20 72 64v82c-1 20 7 32 28 27v20c-31 9-61-2-59-35zM48-53c0 20 12 33 32 33 41-3 63-29 60-74-43 2-92-5-92 41" id="X"/><path fill="#3a414a" d="M68-38c1 34 0 65-14 84H32c9-13 17-26 17-46H33v-38h35" id="Y"/><g id="c"><use transform="matrix(0.030864197530864182,0,0,0.030864197530864182,0,0)" xlink:href="#V"/><use transform="matrix(0.030864197530864182,0,0,0.030864197530864182,6.172839506172837,0)" xlink:href="#W"/><use transform="matrix(0.030864197530864182,0,0,0.030864197530864182,11.728395061728389,0)" xlink:href="#X"/><use transform="matrix(0.030864197530864182,0,0,0.030864197530864182,17.901234567901227,0)" xlink:href="#Y"/></g><path fill="#3a414a" d="M101-234c-31-9-42 10-38 44h38v23H63V0H32v-167H5v-23h27c-7-52 17-82 69-68v24" id="Z"/><g id="d"><use transform="matrix(0.030864197530864182,0,0,0.030864197530864182,0,0)" xlink:href="#Q"/><use transform="matrix(0.030864197530864182,0,0,0.030864197530864182,2.4382716049382704,0)" xlink:href="#R"/><use transform="matrix(0.030864197530864182,0,0,0.030864197530864182,8.611111111111107,0)" xlink:href="#Z"/><use transform="matrix(0.030864197530864182,0,0,0.030864197530864182,11.697530864197525,0)" xlink:href="#M"/></g><path fill="#3a414a" d="M135-143c-3-34-86-38-87 0 15 53 115 12 119 90S17 21 10-45l28-5c4 36 97 45 98 0-10-56-113-15-118-90-4-57 82-63 122-42 12 7 21 19 24 35" id="aa"/><path fill="#3a414a" d="M106-169C34-169 62-67 57 0H25v-261h32l-1 103c12-21 28-36 61-36 89 0 53 116 60 194h-32v-121c2-32-8-49-39-48" id="ab"/><path fill="#3a414a" d="M84 4C-5 8 30-112 23-190h32v120c0 31 7 50 39 49 72-2 45-101 50-169h31l1 190h-30c-1-10 1-25-2-33-11 22-28 36-60 37" id="ac"/><g id="e"><use transform="matrix(0.030864197530864182,0,0,0.030864197530864182,0,0)" xlink:href="#aa"/><use transform="matrix(0.030864197530864182,0,0,0.030864197530864182,5.555555555555553,0)" xlink:href="#P"/><use transform="matrix(0.030864197530864182,0,0,0.030864197530864182,11.111111111111105,0)" xlink:href="#ab"/><use transform="matrix(0.030864197530864182,0,0,0.030864197530864182,17.283950617283942,0)" xlink:href="#V"/><use transform="matrix(0.030864197530864182,0,0,0.030864197530864182,23.456790123456777,0)" xlink:href="#S"/><use transform="matrix(0.030864197530864182,0,0,0.030864197530864182,29.629629629629612,0)" xlink:href="#ac"/></g><g id="f"><use transform="matrix(0.06172839506172839,0,0,0.06172839506172839,0,0)" xlink:href="#S"/><use transform="matrix(0.06172839506172839,0,0,0.06172839506172839,12.345679012345679,0)" xlink:href="#M"/><use transform="matrix(0.06172839506172839,0,0,0.06172839506172839,24.691358024691358,0)" xlink:href="#P"/><use transform="matrix(0.06172839506172839,0,0,0.06172839506172839,35.80246913580247,0)" xlink:href="#T"/><use transform="matrix(0.06172839506172839,0,0,0.06172839506172839,41.97530864197531,0)" xlink:href="#M"/><use transform="matrix(0.06172839506172839,0,0,0.06172839506172839,54.32098765432099,0)" xlink:href="#U"/></g><g id="g"><use transform="matrix(0.06172839506172839,0,0,0.06172839506172839,0,0)" xlink:href="#L"/><use transform="matrix(0.06172839506172839,0,0,0.06172839506172839,12.345679012345679,0)" xlink:href="#X"/><use transform="matrix(0.06172839506172839,0,0,0.06172839506172839,24.691358024691358,0)" xlink:href="#T"/><use transform="matrix(0.06172839506172839,0,0,0.06172839506172839,30.864197530864196,0)" xlink:href="#Q"/><use transform="matrix(0.06172839506172839,0,0,0.06172839506172839,35.74074074074074,0)" xlink:href="#V"/><use transform="matrix(0.06172839506172839,0,0,0.06172839506172839,48.08641975308642,0)" xlink:href="#R"/><use transform="matrix(0.06172839506172839,0,0,0.06172839506172839,60.432098765432094,0)" xlink:href="#T"/></g><path fill="#3a414a" d="M206 0h-36l-40-164L89 0H53L-1-190h32L70-26l43-164h34l41 164 42-164h31" id="ad"/><path fill="#3a414a" d="M143 0L79-87 56-68V0H24v-261h32v163l83-92h37l-77 82L181 0h-38" id="ae"/><g id="h"><use transform="matrix(0.06172839506172839,0,0,0.06172839506172839,0,0)" xlink:href="#ad"/><use transform="matrix(0.06172839506172839,0,0,0.06172839506172839,15.987654320987653,0)" xlink:href="#M"/><use transform="matrix(0.06172839506172839,0,0,0.06172839506172839,28.333333333333332,0)" xlink:href="#U"/><use transform="matrix(0.06172839506172839,0,0,0.06172839506172839,35.67901234567901,0)" xlink:href="#ae"/></g><path fill="#3a414a" d="M108 0H70L1-190h34L89-25l56-165h34" id="af"/><g id="i"><use transform="matrix(0.06172839506172839,0,0,0.06172839506172839,0,0)" xlink:href="#U"/><use transform="matrix(0.06172839506172839,0,0,0.06172839506172839,7.345679012345679,0)" xlink:href="#V"/><use transform="matrix(0.06172839506172839,0,0,0.06172839506172839,19.691358024691358,0)" xlink:href="#aa"/><use transform="matrix(0.06172839506172839,0,0,0.06172839506172839,30.80246913580247,0)" xlink:href="#V"/><use transform="matrix(0.06172839506172839,0,0,0.06172839506172839,43.148148148148145,0)" xlink:href="#U"/><use transform="matrix(0.06172839506172839,0,0,0.06172839506172839,50.49382716049382,0)" xlink:href="#af"/><use transform="matrix(0.06172839506172839,0,0,0.06172839506172839,61.60493827160494,0)" xlink:href="#V"/></g><path fill="#3a414a" d="M210-169c-67 3-38 105-44 169h-31v-121c0-29-5-50-35-48C34-165 62-65 56 0H25l-1-190h30c1 10-1 24 2 32 10-44 99-50 107 0 11-21 27-35 58-36 85-2 47 119 55 194h-31v-121c0-29-5-49-35-48" id="ag"/><g id="j"><use transform="matrix(0.030864197530864182,0,0,0.030864197530864182,0,0)" xlink:href="#R"/><use transform="matrix(0.030864197530864182,0,0,0.030864197530864182,6.172839506172837,0)" xlink:href="#X"/><use transform="matrix(0.030864197530864182,0,0,0.030864197530864182,12.345679012345673,0)" xlink:href="#ag"/><use transform="matrix(0.030864197530864182,0,0,0.030864197530864182,21.574074074074062,0)" xlink:href="#V"/></g><path fill="#3a414a" d="M115-194c53 0 69 39 70 98 0 66-23 100-70 100C84 3 66-7 56-30L54 0H23l1-261h32v101c10-23 28-34 59-34zm-8 174c40 0 45-34 45-75 0-40-5-75-45-74-42 0-51 32-51 76 0 43 10 73 51 73" id="ah"/><g id="k"><use transform="matrix(0.030864197530864182,0,0,0.030864197530864182,0,0)" xlink:href="#ah"/><use transform="matrix(0.030864197530864182,0,0,0.030864197530864182,6.172839506172837,0)" xlink:href="#Q"/><use transform="matrix(0.030864197530864182,0,0,0.030864197530864182,8.611111111111107,0)" xlink:href="#U"/><use transform="matrix(0.030864197530864182,0,0,0.030864197530864182,12.283950617283946,0)" xlink:href="#T"/><use transform="matrix(0.030864197530864182,0,0,0.030864197530864182,15.370370370370363,0)" xlink:href="#ab"/></g><path fill="#3a414a" d="M-5 72V49h209v23H-5" id="ai"/><g id="l"><use transform="matrix(0.030864197530864182,0,0,0.030864197530864182,0,0)" xlink:href="#R"/><use transform="matrix(0.030864197530864182,0,0,0.030864197530864182,6.172839506172837,0)" xlink:href="#ai"/><use transform="matrix(0.030864197530864182,0,0,0.030864197530864182,12.345679012345673,0)" xlink:href="#Q"/><use transform="matrix(0.030864197530864182,0,0,0.030864197530864182,14.783950617283944,0)" xlink:href="#S"/></g><g id="m"><use transform="matrix(0.030864197530864182,0,0,0.030864197530864182,0,0)" xlink:href="#X"/><use transform="matrix(0.030864197530864182,0,0,0.030864197530864182,6.172839506172837,0)" xlink:href="#S"/><use transform="matrix(0.030864197530864182,0,0,0.030864197530864182,12.345679012345673,0)" xlink:href="#S"/><use transform="matrix(0.030864197530864182,0,0,0.030864197530864182,18.518518518518512,0)" xlink:href="#U"/><use transform="matrix(0.030864197530864182,0,0,0.030864197530864182,22.19135802469135,0)" xlink:href="#V"/><use transform="matrix(0.030864197530864182,0,0,0.030864197530864182,28.36419753086419,0)" xlink:href="#aa"/><use transform="matrix(0.030864197530864182,0,0,0.030864197530864182,33.91975308641974,0)" xlink:href="#aa"/></g><g id="n"><use transform="matrix(0.06172839506172839,0,0,0.06172839506172839,0,0)" xlink:href="#af"/><use transform="matrix(0.06172839506172839,0,0,0.06172839506172839,11.11111111111111,0)" xlink:href="#Q"/><use transform="matrix(0.06172839506172839,0,0,0.06172839506172839,15.987654320987653,0)" xlink:href="#aa"/><use transform="matrix(0.06172839506172839,0,0,0.06172839506172839,27.098765432098766,0)" xlink:href="#Q"/><use transform="matrix(0.06172839506172839,0,0,0.06172839506172839,31.975308641975307,0)" xlink:href="#T"/><use transform="matrix(0.06172839506172839,0,0,0.06172839506172839,38.14814814814815,0)" xlink:href="#M"/><use transform="matrix(0.06172839506172839,0,0,0.06172839506172839,50.49382716049383,0)" xlink:href="#U"/></g><g id="o"><use transform="matrix(0.030864197530864182,0,0,0.030864197530864182,0,0)" xlink:href="#L"/><use transform="matrix(0.030864197530864182,0,0,0.030864197530864182,6.172839506172837,0)" xlink:href="#ab"/><use transform="matrix(0.030864197530864182,0,0,0.030864197530864182,12.345679012345673,0)" xlink:href="#M"/><use transform="matrix(0.030864197530864182,0,0,0.030864197530864182,18.518518518518512,0)" xlink:href="#R"/><use transform="matrix(0.030864197530864182,0,0,0.030864197530864182,24.691358024691347,0)" xlink:href="#V"/></g><g id="p"><use transform="matrix(0.06172839506172839,0,0,0.06172839506172839,0,0)" xlink:href="#aa"/><use transform="matrix(0.06172839506172839,0,0,0.06172839506172839,11.11111111111111,0)" xlink:href="#L"/><use transform="matrix(0.06172839506172839,0,0,0.06172839506172839,23.45679012345679,0)" xlink:href="#V"/><use transform="matrix(0.06172839506172839,0,0,0.06172839506172839,35.80246913580247,0)" xlink:href="#P"/><use transform="matrix(0.06172839506172839,0,0,0.06172839506172839,46.91358024691358,0)" xlink:href="#Q"/><use transform="matrix(0.06172839506172839,0,0,0.06172839506172839,51.79012345679013,0)" xlink:href="#X"/><use transform="matrix(0.06172839506172839,0,0,0.06172839506172839,64.13580246913581,0)" xlink:href="#N"/><use transform="matrix(0.06172839506172839,0,0,0.06172839506172839,69.01234567901236,0)" xlink:href="#Q"/><use transform="matrix(0.06172839506172839,0,0,0.06172839506172839,73.8888888888889,0)" xlink:href="#T"/><use transform="matrix(0.06172839506172839,0,0,0.06172839506172839,80.06172839506173,0)" xlink:href="#O"/></g><g id="q"><use transform="matrix(0.06172839506172839,0,0,0.06172839506172839,0,0)" xlink:href="#ab"/><use transform="matrix(0.06172839506172839,0,0,0.06172839506172839,12.345679012345679,0)" xlink:href="#X"/><use transform="matrix(0.06172839506172839,0,0,0.06172839506172839,24.691358024691358,0)" xlink:href="#af"/><use transform="matrix(0.06172839506172839,0,0,0.06172839506172839,35.80246913580247,0)" xlink:href="#V"/></g><g id="r"><use transform="matrix(0.030864197530864182,0,0,0.030864197530864182,0,0)" xlink:href="#R"/><use transform="matrix(0.030864197530864182,0,0,0.030864197530864182,6.172839506172837,0)" xlink:href="#X"/><use transform="matrix(0.030864197530864182,0,0,0.030864197530864182,12.345679012345673,0)" xlink:href="#ag"/><use transform="matrix(0.030864197530864182,0,0,0.030864197530864182,21.574074074074062,0)" xlink:href="#V"/></g><g id="s"><use transform="matrix(0.030864197530864182,0,0,0.030864197530864182,0,0)" xlink:href="#ah"/><use transform="matrix(0.030864197530864182,0,0,0.030864197530864182,6.172839506172837,0)" xlink:href="#Q"/><use transform="matrix(0.030864197530864182,0,0,0.030864197530864182,8.611111111111107,0)" xlink:href="#U"/><use transform="matrix(0.030864197530864182,0,0,0.030864197530864182,12.283950617283946,0)" xlink:href="#T"/><use transform="matrix(0.030864197530864182,0,0,0.030864197530864182,15.370370370370363,0)" xlink:href="#ab"/></g><path fill="#3a414a" d="M177-190C167-65 218 103 67 71c-23-6-38-20-44-43l32-5c15 47 100 32 89-28v-30C133-14 115 1 83 1 29 1 15-40 15-95c0-56 16-97 71-98 29-1 48 16 59 35 1-10 0-23 2-32h30zM94-22c36 0 50-32 50-73 0-42-14-75-50-75-39 0-46 34-46 75s6 73 46 73" id="aj"/><g id="t"><use transform="matrix(0.030864197530864182,0,0,0.030864197530864182,0,0)" xlink:href="#aj"/><use transform="matrix(0.030864197530864182,0,0,0.030864197530864182,6.172839506172837,0)" xlink:href="#V"/><use transform="matrix(0.030864197530864182,0,0,0.030864197530864182,12.345679012345673,0)" xlink:href="#R"/><use transform="matrix(0.030864197530864182,0,0,0.030864197530864182,18.518518518518512,0)" xlink:href="#S"/><use transform="matrix(0.030864197530864182,0,0,0.030864197530864182,24.691358024691347,0)" xlink:href="#V"/><use transform="matrix(0.030864197530864182,0,0,0.030864197530864182,30.864197530864182,0)" xlink:href="#U"/></g><g id="u"><use transform="matrix(0.030864197530864182,0,0,0.030864197530864182,0,0)" xlink:href="#L"/><use transform="matrix(0.030864197530864182,0,0,0.030864197530864182,6.172839506172837,0)" xlink:href="#ab"/><use transform="matrix(0.030864197530864182,0,0,0.030864197530864182,12.345679012345673,0)" xlink:href="#M"/><use transform="matrix(0.030864197530864182,0,0,0.030864197530864182,18.518518518518512,0)" xlink:href="#R"/><use transform="matrix(0.030864197530864182,0,0,0.030864197530864182,24.691358024691347,0)" xlink:href="#V"/></g><path fill="#3a414a" d="M24-231v-30h32v30H24zM-9 49c24 4 33-6 33-30v-209h32V24c2 40-23 58-65 49V49" id="ak"/><g id="v"><use transform="matrix(0.030864197530864182,0,0,0.030864197530864182,0,0)" xlink:href="#ak"/><use transform="matrix(0.030864197530864182,0,0,0.030864197530864182,2.4382716049382704,0)" xlink:href="#M"/><use transform="matrix(0.030864197530864182,0,0,0.030864197530864182,8.611111111111107,0)" xlink:href="#ah"/></g><g id="w"><use transform="matrix(0.030864197530864182,0,0,0.030864197530864182,0,0)" xlink:href="#P"/><use transform="matrix(0.030864197530864182,0,0,0.030864197530864182,5.555555555555553,0)" xlink:href="#ab"/><use transform="matrix(0.030864197530864182,0,0,0.030864197530864182,11.728395061728389,0)" xlink:href="#U"/><use transform="matrix(0.030864197530864182,0,0,0.030864197530864182,15.401234567901227,0)" xlink:href="#M"/><use transform="matrix(0.030864197530864182,0,0,0.030864197530864182,21.574074074074062,0)" xlink:href="#R"/><use transform="matrix(0.030864197530864182,0,0,0.030864197530864182,27.746913580246897,0)" xlink:href="#Q"/><use transform="matrix(0.030864197530864182,0,0,0.030864197530864182,30.18518518518517,0)" xlink:href="#P"/></g><g id="x"><use transform="matrix(0.030864197530864182,0,0,0.030864197530864182,0,0)" xlink:href="#Q"/><use transform="matrix(0.030864197530864182,0,0,0.030864197530864182,2.4382716049382704,0)" xlink:href="#R"/><use transform="matrix(0.030864197530864182,0,0,0.030864197530864182,8.611111111111107,0)" xlink:href="#ab"/><use transform="matrix(0.030864197530864182,0,0,0.030864197530864182,14.783950617283944,0)" xlink:href="#V"/><use transform="matrix(0.030864197530864182,0,0,0.030864197530864182,20.95679012345678,0)" xlink:href="#U"/><use transform="matrix(0.030864197530864182,0,0,0.030864197530864182,24.62962962962962,0)" xlink:href="#Q"/><use transform="matrix(0.030864197530864182,0,0,0.030864197530864182,27.06790123456789,0)" xlink:href="#T"/></g><g id="y"><use transform="matrix(0.030864197530864182,0,0,0.030864197530864182,0,0)" xlink:href="#S"/><use transform="matrix(0.030864197530864182,0,0,0.030864197530864182,6.172839506172837,0)" xlink:href="#Q"/><use transform="matrix(0.030864197530864182,0,0,0.030864197530864182,8.611111111111107,0)" xlink:href="#X"/><use transform="matrix(0.030864197530864182,0,0,0.030864197530864182,14.783950617283944,0)" xlink:href="#ah"/><use transform="matrix(0.030864197530864182,0,0,0.030864197530864182,20.95679012345678,0)" xlink:href="#X"/><use transform="matrix(0.030864197530864182,0,0,0.030864197530864182,27.12962962962962,0)" xlink:href="#T"/><use transform="matrix(0.030864197530864182,0,0,0.030864197530864182,30.216049382716037,0)" xlink:href="#V"/><use transform="matrix(0.030864197530864182,0,0,0.030864197530864182,36.38888888888887,0)" xlink:href="#aa"/></g><path fill="#3a414a" d="M30-248c87 1 191-15 191 75 0 78-77 80-158 76V0H30v-248zm33 125c57 0 124 11 124-50 0-59-68-47-124-48v98" id="al"/><g id="z"><use transform="matrix(0.030864197530864182,0,0,0.030864197530864182,0,0)" xlink:href="#ah"/><use transform="matrix(0.030864197530864182,0,0,0.030864197530864182,6.172839506172837,0)" xlink:href="#al"/></g><g id="A"><use transform="matrix(0.030864197530864182,0,0,0.030864197530864182,0,0)" xlink:href="#aa"/><use transform="matrix(0.030864197530864182,0,0,0.030864197530864182,5.555555555555553,0)" xlink:href="#ac"/><use transform="matrix(0.030864197530864182,0,0,0.030864197530864182,11.728395061728389,0)" xlink:href="#U"/><use transform="matrix(0.030864197530864182,0,0,0.030864197530864182,15.401234567901227,0)" xlink:href="#aj"/><use transform="matrix(0.030864197530864182,0,0,0.030864197530864182,21.574074074074062,0)" xlink:href="#V"/><use transform="matrix(0.030864197530864182,0,0,0.030864197530864182,27.746913580246897,0)" xlink:href="#U"/><use transform="matrix(0.030864197530864182,0,0,0.030864197530864182,31.419753086419735,0)" xlink:href="#O"/></g><g id="B"><use transform="matrix(0.030864197530864182,0,0,0.030864197530864182,0,0)" xlink:href="#M"/><use transform="matrix(0.030864197530864182,0,0,0.030864197530864182,6.172839506172837,0)" xlink:href="#T"/><use transform="matrix(0.030864197530864182,0,0,0.030864197530864182,9.259259259259256,0)" xlink:href="#ab"/><use transform="matrix(0.030864197530864182,0,0,0.030864197530864182,15.432098765432093,0)" xlink:href="#V"/><use transform="matrix(0.030864197530864182,0,0,0.030864197530864182,21.60493827160493,0)" xlink:href="#U"/></g><g id="C"><use transform="matrix(0.030864197530864182,0,0,0.030864197530864182,0,0)" xlink:href="#Q"/><use transform="matrix(0.030864197530864182,0,0,0.030864197530864182,2.4382716049382704,0)" xlink:href="#R"/><use transform="matrix(0.030864197530864182,0,0,0.030864197530864182,8.611111111111107,0)" xlink:href="#Z"/><use transform="matrix(0.030864197530864182,0,0,0.030864197530864182,11.697530864197525,0)" xlink:href="#M"/></g><g id="D"><use transform="matrix(0.06172839506172839,0,0,0.06172839506172839,0,0)" xlink:href="#af"/><use transform="matrix(0.06172839506172839,0,0,0.06172839506172839,11.11111111111111,0)" xlink:href="#Q"/><use transform="matrix(0.06172839506172839,0,0,0.06172839506172839,15.987654320987653,0)" xlink:href="#aa"/><use transform="matrix(0.06172839506172839,0,0,0.06172839506172839,27.098765432098766,0)" xlink:href="#Q"/><use transform="matrix(0.06172839506172839,0,0,0.06172839506172839,31.975308641975307,0)" xlink:href="#T"/><use transform="matrix(0.06172839506172839,0,0,0.06172839506172839,38.14814814814815,0)" xlink:href="#aa"/></g><g id="E"><use transform="matrix(0.030864197530864182,0,0,0.030864197530864182,0,0)" xlink:href="#S"/><use transform="matrix(0.030864197530864182,0,0,0.030864197530864182,6.172839506172837,0)" xlink:href="#X"/><use transform="matrix(0.030864197530864182,0,0,0.030864197530864182,12.345679012345673,0)" xlink:href="#T"/><use transform="matrix(0.030864197530864182,0,0,0.030864197530864182,15.432098765432091,0)" xlink:href="#V"/></g><g id="F"><use transform="matrix(0.030864197530864182,0,0,0.030864197530864182,0,0)" xlink:href="#V"/><use transform="matrix(0.030864197530864182,0,0,0.030864197530864182,6.172839506172837,0)" xlink:href="#W"/><use transform="matrix(0.030864197530864182,0,0,0.030864197530864182,11.728395061728389,0)" xlink:href="#X"/><use transform="matrix(0.030864197530864182,0,0,0.030864197530864182,17.901234567901227,0)" xlink:href="#ag"/></g><g id="G"><use transform="matrix(0.030864197530864182,0,0,0.030864197530864182,0,0)" xlink:href="#Z"/><use transform="matrix(0.030864197530864182,0,0,0.030864197530864182,3.0864197530864184,0)" xlink:href="#M"/><use transform="matrix(0.030864197530864182,0,0,0.030864197530864182,9.259259259259256,0)" xlink:href="#ac"/><use transform="matrix(0.030864197530864182,0,0,0.030864197530864182,15.432098765432093,0)" xlink:href="#R"/><use transform="matrix(0.030864197530864182,0,0,0.030864197530864182,21.60493827160493,0)" xlink:href="#S"/></g><g id="H"><use transform="matrix(0.030864197530864182,0,0,0.030864197530864182,0,0)" xlink:href="#P"/><use transform="matrix(0.030864197530864182,0,0,0.030864197530864182,5.555555555555553,0)" xlink:href="#M"/><use transform="matrix(0.030864197530864182,0,0,0.030864197530864182,11.728395061728389,0)" xlink:href="#ag"/><use transform="matrix(0.030864197530864182,0,0,0.030864197530864182,20.956790123456777,0)" xlink:href="#L"/><use transform="matrix(0.030864197530864182,0,0,0.030864197530864182,27.129629629629612,0)" xlink:href="#N"/><use transform="matrix(0.030864197530864182,0,0,0.030864197530864182,29.567901234567884,0)" xlink:href="#X"/><use transform="matrix(0.030864197530864182,0,0,0.030864197530864182,35.74074074074072,0)" xlink:href="#Q"/><use transform="matrix(0.030864197530864182,0,0,0.030864197530864182,38.17901234567899,0)" xlink:href="#R"/><use transform="matrix(0.030864197530864182,0,0,0.030864197530864182,44.351851851851826,0)" xlink:href="#T"/></g><g id="I"><use transform="matrix(0.030864197530864182,0,0,0.030864197530864182,0,0)" xlink:href="#S"/><use transform="matrix(0.030864197530864182,0,0,0.030864197530864182,6.172839506172837,0)" xlink:href="#Q"/><use transform="matrix(0.030864197530864182,0,0,0.030864197530864182,8.611111111111107,0)" xlink:href="#X"/><use transform="matrix(0.030864197530864182,0,0,0.030864197530864182,14.783950617283944,0)" xlink:href="#aj"/><use transform="matrix(0.030864197530864182,0,0,0.030864197530864182,20.95679012345678,0)" xlink:href="#R"/><use transform="matrix(0.030864197530864182,0,0,0.030864197530864182,27.12962962962962,0)" xlink:href="#M"/><use transform="matrix(0.030864197530864182,0,0,0.030864197530864182,33.302469135802454,0)" xlink:href="#aa"/><use transform="matrix(0.030864197530864182,0,0,0.030864197530864182,38.858024691358004,0)" xlink:href="#Q"/><use transform="matrix(0.030864197530864182,0,0,0.030864197530864182,41.296296296296276,0)" xlink:href="#aa"/></g><g id="J"><use transform="matrix(0.030864197530864182,0,0,0.030864197530864182,0,0)" xlink:href="#T"/><use transform="matrix(0.030864197530864182,0,0,0.030864197530864182,3.0864197530864184,0)" xlink:href="#V"/><use transform="matrix(0.030864197530864182,0,0,0.030864197530864182,9.259259259259256,0)" xlink:href="#aa"/><use transform="matrix(0.030864197530864182,0,0,0.030864197530864182,14.81481481481481,0)" xlink:href="#T"/></g><g id="K"><use transform="matrix(0.030864197530864182,0,0,0.030864197530864182,0,0)" xlink:href="#U"/><use transform="matrix(0.030864197530864182,0,0,0.030864197530864182,3.6728395061728376,0)" xlink:href="#V"/><use transform="matrix(0.030864197530864182,0,0,0.030864197530864182,9.845679012345673,0)" xlink:href="#aa"/><use transform="matrix(0.030864197530864182,0,0,0.030864197530864182,15.401234567901227,0)" xlink:href="#ac"/><use transform="matrix(0.030864197530864182,0,0,0.030864197530864182,21.574074074074062,0)" xlink:href="#N"/><use transform="matrix(0.030864197530864182,0,0,0.030864197530864182,24.012345679012334,0)" xlink:href="#T"/></g></defs></g></svg>